HIERARCHY
ROOT joint_Root
{
	OFFSET 0.0 0.0 0.0
	CHANNELS 6 Xposition Yposition Zposition Zrotation Xrotation Yrotation 
	JOINT Hips
	{
		OFFSET 4.5925 91.4895 -427.239
		CHANNELS 6 Xposition Yposition Zposition Zrotation Xrotation Yrotation 
		JOINT Spine
		{
			OFFSET 15.7357 0.0 0.0
			CHANNELS 6 Xposition Yposition Zposition Zrotation Xrotation Yrotation 
			JOINT Chest
			{
				OFFSET 8.98455 -0.406207 0.0
				CHANNELS 6 Xposition Yposition Zposition Zrotation Xrotation Yrotation 
				JOINT Neck
				{
					OFFSET 16.3773 0.0 0.0
					CHANNELS 6 Xposition Yposition Zposition Zrotation Xrotation Yrotation 
					JOINT Head
					{
						OFFSET 6.45672 0.0 0.0
						CHANNELS 6 Xposition Yposition Zposition Zrotation Xrotation Yrotation 
						End Site
						{
							OFFSET 0.0 0.0 0.0
						}
					}
				}
				JOINT Shoulder_L
				{
					OFFSET 12.9942 -0.242716 4.98039
					CHANNELS 6 Xposition Yposition Zposition Zrotation Xrotation Yrotation 
					JOINT UpperArm_L
					{
						OFFSET 5.34809 0.0 0.0
						CHANNELS 6 Xposition Yposition Zposition Zrotation Xrotation Yrotation 
						JOINT LowerArm_L
						{
							OFFSET 24.3286 1.87007e-05 0.0
							CHANNELS 6 Xposition Yposition Zposition Zrotation Xrotation Yrotation 
							JOINT Hand_L
							{
								OFFSET 22.2916 0.0 0.0
								CHANNELS 6 Xposition Yposition Zposition Zrotation Xrotation Yrotation 
								End Site
								{
									OFFSET 0.0 0.0 0.0
								}
							}
						}
					}
				}
				JOINT Shoulder_R
				{
					OFFSET 12.9945 -0.242716 -4.98039
					CHANNELS 6 Xposition Yposition Zposition Zrotation Xrotation Yrotation 
					JOINT UpperArm_R
					{
						OFFSET -5.34813 0.0 0.0
						CHANNELS 6 Xposition Yposition Zposition Zrotation Xrotation Yrotation 
						JOINT LowerArm_R
						{
							OFFSET -24.3289 0.000322201 0.0
							CHANNELS 6 Xposition Yposition Zposition Zrotation Xrotation Yrotation 
							JOINT Hand_R
							{
								OFFSET -22.2915 -0.000108084 0.0
								CHANNELS 6 Xposition Yposition Zposition Zrotation Xrotation Yrotation 
								End Site
								{
									OFFSET 0.0 0.0 0.0
								}
							}
						}
					}
				}
			}
		}
		JOINT UpperLeg_L
		{
			OFFSET -2.19248 -6.46944 0.0
			CHANNELS 6 Xposition Yposition Zposition Zrotation Xrotation Yrotation 
			JOINT LowerLeg_L
			{
				OFFSET 39.0811 0.0 -1.23785e-05
				CHANNELS 6 Xposition Yposition Zposition Zrotation Xrotation Yrotation 
				JOINT Foot_L
				{
					OFFSET 40.9854 0.0 -1.26872e-05
					CHANNELS 6 Xposition Yposition Zposition Zrotation Xrotation Yrotation 
					JOINT Toes_L
					{
						OFFSET 11.7543 0.0 0.0
						CHANNELS 6 Xposition Yposition Zposition Zrotation Xrotation Yrotation 
						End Site
						{
							OFFSET 0.0 0.0 0.0
						}
					}
				}
			}
		}
		JOINT UpperLeg_R
		{
			OFFSET -2.19251 6.46944 0.0
			CHANNELS 6 Xposition Yposition Zposition Zrotation Xrotation Yrotation 
			JOINT LowerLeg_R
			{
				OFFSET -39.0811 -0.00228153 -0.0401928
				CHANNELS 6 Xposition Yposition Zposition Zrotation Xrotation Yrotation 
				JOINT Foot_R
				{
					OFFSET -40.9854 0.0 0.0
					CHANNELS 6 Xposition Yposition Zposition Zrotation Xrotation Yrotation 
					JOINT Toes_R
					{
						OFFSET -11.7543 0.0 0.0
						CHANNELS 6 Xposition Yposition Zposition Zrotation Xrotation Yrotation 
						End Site
						{
							OFFSET 0.0 0.0 0.0
						}
					}
				}
			}
		}
	}
}
MOTION
Frames:	4
Frame Time:	0.0333333
0.000000 0.000000 0.000000 0.000000 0.000000 -0.000000 -209.009000 91.671900 196.369000 -19.002500 84.552900 100.658000 15.735700 0.000005 -0.000001 44.428400 81.648200 -41.776800 8.984550 -0.406207 -0.000000 4.288370 -11.991000 5.763040 16.377300 -0.000001 -0.000001 -0.872692 4.231340 0.299961 6.456720 -0.000001 -0.000000 -5.587800 11.350200 1.746370 12.994200 -0.242716 4.980390 -84.353200 -15.797300 -70.038600 5.348090 -0.000007 -0.000001 -46.547400 13.404400 -73.192600 24.328600 0.000019 0.000005 10.219900 -6.155450 -120.742000 22.291600 -0.000001 0.000005 -0.207356 5.436260 -4.155360 12.994500 -0.242716 -4.980390 93.557900 -11.387500 -72.520100 -5.348130 -0.000001 -0.000004 -74.907900 38.339000 48.025500 -24.328900 0.000322 -0.000009 -11.134300 -1.558430 -82.132500 -22.291500 -0.000108 -0.000004 19.691000 5.636880 -13.874500 -2.192480 -6.469440 -0.000000 -171.770000 -17.724800 5.596190 39.081100 -0.000007 -0.000012 -0.010901 0.049479 12.424500 40.985400 -0.000006 -0.000013 2.787660 9.780390 -64.573000 11.754300 -0.000000 0.000003 -0.023097 -0.183886 -24.096100 -2.192510 6.469440 -0.000001 -176.701000 4.033200 143.058000 -39.081100 -0.002282 -0.040193 0.032579 -0.026143 48.284200 -40.985400 0.000008 0.000006 1.713210 -1.782960 -58.621000 -11.754300 -0.000006 -0.000006 -0.024396 -0.190522 -24.366500
0.000000 0.000000 0.000000 0.000000 0.000000 -0.000000 -204.914000 90.843500 196.662000 -17.565100 85.215500 99.213700 15.735700 0.000005 -0.000001 45.657000 81.408000 -42.961300 8.984550 -0.406207 -0.000000 4.901520 -12.056200 5.918810 16.377300 -0.000001 -0.000001 -1.018750 4.260790 0.607532 6.456720 -0.000001 -0.000000 -6.007430 11.009600 3.343800 12.994200 -0.242716 4.980390 -84.349600 -15.056700 -69.150000 5.348090 -0.000007 -0.000001 -41.514200 14.262800 -74.030100 24.328600 0.000019 0.000005 10.404400 -5.641260 -118.163000 22.291600 -0.000001 0.000005 -0.446906 5.442520 -4.373950 12.994500 -0.242716 -4.980390 93.295600 -10.622500 -72.652300 -5.348130 -0.000001 -0.000004 -73.034200 34.286100 46.096400 -24.328900 0.000322 -0.000009 -9.822120 -1.001450 -84.233600 -22.291500 -0.000108 -0.000004 20.383000 5.628000 -13.190100 -2.192480 -6.469440 -0.000000 -170.961000 -16.537100 7.392370 39.081100 -0.000007 -0.000012 -0.013924 0.054787 14.259600 40.985400 -0.000006 -0.000013 1.401590 11.370800 -63.684600 11.754300 -0.000000 0.000003 -0.046701 -0.285805 -28.338300 -2.192510 6.469440 -0.000001 -176.047000 6.188220 142.554000 -39.081100 -0.002282 -0.040193 0.023794 -0.027167 37.049000 -40.985400 0.000008 0.000006 -1.580700 1.725670 -59.237000 -11.754300 -0.000006 -0.000006 -0.025351 -0.195305 -24.564200
0.000000 0.000000 0.000000 0.000000 0.000000 -0.000000 -200.378000 89.384800 197.145000 -27.868100 85.831300 110.428000 15.735700 0.000005 -0.000001 48.818900 80.996200 -46.253100 8.984550 -0.406207 -0.000000 6.162090 -11.861600 5.780940 16.377300 -0.000001 -0.000001 -1.406560 3.788430 0.883255 6.456720 -0.000001 -0.000000 -6.476350 9.933990 5.078580 12.994200 -0.242716 4.980390 -85.095100 -13.915300 -70.362900 5.348090 -0.000007 -0.000001 -38.253000 17.923600 -72.776100 24.328600 0.000019 0.000005 10.728300 -4.972890 -114.585000 22.291600 -0.000001 0.000005 -0.070904 5.457820 -4.918540 12.994500 -0.242716 -4.980390 92.347300 -7.781740 -73.158100 -5.348130 -0.000001 -0.000004 -71.252300 29.368200 42.603400 -24.328900 0.000322 -0.000009 -9.917860 -1.027850 -84.140900 -22.291500 -0.000108 -0.000004 22.172500 5.625340 -13.000300 -2.192480 -6.469440 -0.000000 -170.340000 -13.513000 8.858710 39.081100 -0.000007 -0.000012 -0.019100 0.056115 18.796700 40.985400 -0.000006 -0.000013 0.102095 12.115100 -63.961200 11.754300 -0.000000 0.000003 -0.090551 -0.420495 -34.083300 -2.192510 6.469440 -0.000001 -174.620000 10.134300 142.103000 -39.081100 -0.002282 -0.040193 0.014765 -0.018862 31.294300 -40.985400 0.000008 0.000006 -3.914880 4.218790 -59.346000 -11.754300 -0.000006 -0.000006 -0.024983 -0.193472 -24.488400
0.000000 0.000000 0.000000 0.000000 0.000000 -0.000000 -195.160000 87.713200 197.893000 -47.387800 85.779800 130.412000 15.735700 0.000005 -0.000001 51.468200 80.974300 -48.903400 8.984550 -0.406207 -0.000000 6.712170 -11.234400 5.797880 16.377300 -0.000001 -0.000001 -2.110660 2.996350 0.865789 6.456720 -0.000001 -0.000000 -5.899640 8.547150 6.110960 12.994200 -0.242716 4.980390 -86.714400 -11.299200 -73.676000 5.348090 -0.000007 -0.000001 -38.819300 25.420700 -67.590000 24.328600 0.000019 0.000005 10.592400 -3.617610 -108.639000 22.291600 -0.000001 0.000005 1.243370 5.496930 -6.405420 12.994500 -0.242716 -4.980390 90.812200 -2.836860 -74.024100 -5.348130 -0.000001 -0.000004 -69.354700 24.189800 37.725700 -24.328900 0.000322 -0.000009 -12.421800 -1.841580 -81.702200 -22.291500 -0.000108 -0.000004 25.703000 5.626400 -13.058900 -2.192480 -6.469440 -0.000000 -169.986000 -10.296200 9.651570 39.081100 -0.000007 -0.000012 -0.014709 0.033248 23.864100 40.985400 -0.000006 -0.000013 -0.835023 11.730500 -63.280100 11.754300 -0.000000 0.000003 -0.172902 -0.598086 -42.026200 -2.192510 6.469440 -0.000001 -171.417000 15.842500 138.918000 -39.081100 -0.002282 -0.040193 0.080863 -0.108726 35.507000 -40.985400 0.000008 0.000006 0.963432 3.794140 -59.932400 -11.754300 -0.000006 -0.000006 -0.025133 -0.194224 -24.519500
